<svg xmlns="http://www.w3.org/2000/svg" viewBox="0 0 888 640"><g transform="translate(142.85714285714283,30) scale(0.9714285714285714) translate(-80,-30)"><line x1="150" y1="60" x2="260" y2="92" stroke="#ffffff" stroke-width="15" stroke-linecap="round"/><line x1="96" y1="128" x2="218" y2="163" stroke="#ffffff" stroke-width="15" stroke-linecap="round"/><line x1="150" y1="200" x2="250" y2="229" stroke="#ffffff" stroke-width="15" stroke-linecap="round"/><g transform="translate(500,210) rotate(0) scale(-0.64453125,0.64453125) translate(-256.0,-256.0)" fill="#ffffff"><path d="M442.6 67.37c-1.6.01-3.2.06-4.8.16-13.2.73-26.9 3.8-36.8 8.74l-.2.12-281 120.21-4.1-2.6c-20.62-13.3-42.15-26.8-73.84-32.1 2.07 4.7 4.64 9.9 7.76 15.5 6.69 11.9 15.26 25.3 23.75 37.6 8.49 12.2 16.96 23.3 23.21 30.4 2.41 2.8 4.02 4.3 5.42 5.6l172.2-68.6-1.2 14.4c-3.7 44.4-11.3 89.6-23.5 135.7l28.5-19c32.6-51.5 43.5-87.2 71-157.3l1.2-3 91.5-50.5h.2c22.9-11.49 32.8-21.65 34.4-25.36.8-1.86.6-1.37.2-2.04-.4-.66-2.3-2.39-5.8-3.85-5.4-2.2-13.8-3.72-23.3-4.03-1.5-.05-3.2-.07-4.8-.05zm-283 11.74l-22.1 4.4L222 133.3l60.1-25.7C248 96.96 210.8 86.98 159.6 79.11zM32 439v18h448v-18H32z"/></g></g><g transform="translate(64.0,543.6568848758465)" fill="#ffffff"><path d="M60.496613995485326 -63.386004514672685V0.0H45.05643340857788V-26.094808126410836H21.03837471783296V0.0H5.598194130925508V-63.386004514672685H21.03837471783296V-38.55530474040632H45.05643340857788V-63.386004514672685Z M112.32505643340858 -51.01580135440181V-38.1941309255079H133.00225733634312V-26.275395033860047H112.32505643340858V-12.370203160270881H135.71106094808127V0.0H96.88487584650113V-63.386004514672685H135.71106094808127V-51.01580135440181Z M210.47404063205417 -11.196388261851016H186.81715575620768L183.02483069977427 0.0H166.86230248306998L189.79683972911963 -63.386004514672685H207.67494356659142L230.6094808126411 0.0H214.26636568848758ZM206.50112866817156 -23.115124153498872 198.6455981941309 -46.32054176072235 190.8803611738149 -23.115124153498872Z M319.8194130925508 -31.693002257336342Q319.8194130925508 -22.392776523702032 315.7110609480813 -15.169300225733634Q311.6027088036118 -7.945823927765237 304.06320541760726 -3.9729119638826185Q296.52370203160274 0.0 286.5914221218962 0.0H262.8442437923251V-63.386004514672685H286.5914221218962Q296.61399548532734 -63.386004514672685 304.10835214446956 -59.41309255079007Q311.6027088036118 -55.44018058690745 315.7110609480813 -48.261851015801355Q319.8194130925508 -41.08352144469526 319.8194130925508 -31.693002257336342ZM304.10835214446956 -31.693002257336342Q304.10835214446956 -40.45146726862303 299.2325056433409 -45.3273137697517Q294.3566591422122 -50.20316027088036 285.59819413092555 -50.20316027088036H278.2844243792325V-13.363431151241535H285.59819413092555Q294.3566591422122 -13.363431151241535 299.2325056433409 -18.1489841986456Q304.10835214446956 -22.93453724604966 304.10835214446956 -31.693002257336342Z M440.9932279909707 -63.386004514672685 424.46952595936796 0.0H405.77878103837475L395.665914221219 -41.715575620767495L385.1918735891648 0.0H366.5011286681716L350.4288939051919 -63.386004514672685H366.9525959367946L376.0722347629797 -17.24604966139955L387.35891647855533 -63.386004514672685H404.33408577878106L415.16930022573365 -17.24604966139955L424.37923250564336 -63.386004514672685Z M489.4808126410835 -63.386004514672685V0.0H474.04063205417606V-63.386004514672685Z M582.6636568848758 0.0H567.2234762979683L541.3995485327314 -39.09706546275395V0.0H525.9593679458239V-63.386004514672685H541.3995485327314L567.2234762979683 -24.108352144469528V-63.386004514672685H582.6636568848758Z M676.117381489842 -31.693002257336342Q676.117381489842 -22.392776523702032 672.0090293453725 -15.169300225733634Q667.9006772009029 -7.945823927765237 660.3611738148984 -3.9729119638826185Q652.821670428894 0.0 642.8893905191874 0.0H619.1422121896163V-63.386004514672685H642.8893905191874Q652.9119638826186 -63.386004514672685 660.4063205417608 -59.41309255079007Q667.9006772009029 -55.44018058690745 672.0090293453725 -48.261851015801355Q676.117381489842 -41.08352144469526 676.117381489842 -31.693002257336342ZM660.4063205417608 -31.693002257336342Q660.4063205417608 -40.45146726862303 655.530474040632 -45.3273137697517Q650.6546275395034 -50.20316027088036 641.8961625282167 -50.20316027088036H634.5823927765238V-13.363431151241535H641.8961625282167Q650.6546275395034 -13.363431151241535 655.530474040632 -18.1489841986456Q660.4063205417608 -22.93453724604966 660.4063205417608 -31.693002257336342Z M708.2618510158013 -18.961625282167045H724.6952595936795Q725.0564334085778 -15.44018058690745 727.1331828442437 -13.589164785553049Q729.2099322799097 -11.738148984198647 732.5507900677201 -11.738148984198647Q735.981941309255 -11.738148984198647 737.9683972911964 -13.318284424379232Q739.9548532731377 -14.89841986455982 739.9548532731377 -17.697516930022573Q739.9548532731377 -20.045146726862303 738.3747178329571 -21.580135440180587Q736.7945823927765 -23.115124153498872 734.492099322799 -24.108352144469528Q732.1896162528217 -25.10158013544018 727.9458239277652 -26.365688487584652Q721.8058690744921 -28.261851015801355 717.923250564334 -30.15801354401806Q714.0406320541761 -32.05417607223477 711.2415349887133 -35.75620767494357Q708.4424379232506 -39.458239277652375 708.4424379232506 -45.4176072234763Q708.4424379232506 -54.26636568848759 714.8532731376976 -59.27765237020316Q721.2641083521445 -64.28893905191873 731.5575620767495 -64.28893905191873Q742.0316027088036 -64.28893905191873 748.4424379232505 -59.27765237020316Q754.8532731376976 -54.26636568848759 755.3047404063205 -45.3273137697517H738.6004514672686Q738.4198645598194 -48.39729119638827 736.3431151241534 -50.15801354401806Q734.2663656884876 -51.918735891647856 731.0158013544018 -51.918735891647856Q728.216704288939 -51.918735891647856 726.5011286681715 -50.42889390519187Q724.785553047404 -48.93905191873589 724.785553047404 -46.13995485327314Q724.785553047404 -43.06997742663657 727.6749435665914 -41.354401805869074Q730.5643340857788 -39.63882618510158 736.7042889390519 -37.652370203160274Q742.8442437923251 -35.57562076749436 746.6817155756207 -33.67945823927765Q750.5191873589165 -31.783295711060948 753.3182844243793 -28.17155756207675Q756.117381489842 -24.55981941309255 756.117381489842 -18.87133182844244Q756.117381489842 -13.45372460496614 753.3634311512416 -9.029345372460497Q750.6094808126411 -4.604966139954853 745.3724604966139 -1.9864559819413092Q740.1354401805869 0.6320541760722348 733.0022573363432 0.6320541760722348Q726.0496613995485 0.6320541760722348 720.5417607223476 -1.6252821670428894Q715.0338600451468 -3.8826185101580135 711.7381489841987 -8.306997742663658Q708.4424379232506 -12.731376975169301 708.2618510158013 -18.961625282167045Z"/></g></svg>